HIERARCHY
ROOT Hips
{
	OFFSET 0.00000 0.00000 0.00000
	CHANNELS 6 Xposition Yposition Zposition Zrotation Yrotation Xrotation 
	JOINT LHipJoint
	{
		OFFSET 0 0 0
		CHANNELS 3 Zrotation Yrotation Xrotation
		JOINT LeftUpLeg
		{
			OFFSET 1.56857 -1.73443 1.15205
			CHANNELS 3 Zrotation Yrotation Xrotation
			JOINT LeftLeg
			{
				OFFSET 2.39362 -6.57643 0.00000
				CHANNELS 3 Zrotation Yrotation Xrotation
				JOINT LeftFoot
				{
					OFFSET 2.50952 -6.89485 0.00000
					CHANNELS 3 Zrotation Yrotation Xrotation
					JOINT LeftToeBase
					{
						OFFSET 0.17171 -0.47178 1.88682
						CHANNELS 3 Zrotation Yrotation Xrotation
						End Site
						{
							OFFSET 0.00000 -0.00000 0.98146
						}
					}
				}
			}
		}
	}
	JOINT RHipJoint
	{
		OFFSET 0 0 0
		CHANNELS 3 Zrotation Yrotation Xrotation
		JOINT RightUpLeg
		{
			OFFSET -1.28153 -1.73443 1.15205
			CHANNELS 3 Zrotation Yrotation Xrotation
			JOINT RightLeg
			{
				OFFSET -2.26861 -6.23296 0.00000
				CHANNELS 3 Zrotation Yrotation Xrotation
				JOINT RightFoot
				{
					OFFSET -2.54143 -6.98254 0.00000
					CHANNELS 3 Zrotation Yrotation Xrotation
					JOINT RightToeBase
					{
						OFFSET -0.23309 -0.64041 1.93119
						CHANNELS 3 Zrotation Yrotation Xrotation
						End Site
						{
							OFFSET -0.00000 -0.00000 1.02013
						}
					}
				}
			}
		}
	}
	JOINT LowerBack
	{
		OFFSET 0 0 0
		CHANNELS 3 Zrotation Yrotation Xrotation
		JOINT Spine
		{
			OFFSET -0.07096 2.10460 -0.27878
			CHANNELS 3 Zrotation Yrotation Xrotation
			JOINT Spine1
			{
				OFFSET -0.00826 2.13662 -0.08279
				CHANNELS 3 Zrotation Yrotation Xrotation
				JOINT Neck
				{
					OFFSET 0 0 0
					CHANNELS 3 Zrotation Yrotation Xrotation
					JOINT Neck1
					{
						OFFSET 0.03239 1.77799 0.24435
						CHANNELS 3 Zrotation Yrotation Xrotation
						JOINT Head
						{
							OFFSET 0.01026 1.74194 -0.49664
							CHANNELS 3 Zrotation Yrotation Xrotation
							End Site
							{
								OFFSET 0.00170 1.83057 -0.19653
							}
						}
					}
				}
				JOINT LeftShoulder
				{
					OFFSET 0 0 0
					CHANNELS 3 Zrotation Yrotation Xrotation
					JOINT LeftArm
					{
						OFFSET 3.19178 1.35907 -0.31412
						CHANNELS 3 Zrotation Yrotation Xrotation
						JOINT LeftForeArm
						{
							OFFSET 4.85247 -0.00000 -0.00000
							CHANNELS 3 Zrotation Yrotation Xrotation
							JOINT LeftHand
							{
								OFFSET 3.55584 -0.00000 0.00000
								CHANNELS 3 Zrotation Yrotation Xrotation
								JOINT LeftFingerBase
								{
									OFFSET 0 0 0
									CHANNELS 3 Zrotation Yrotation Xrotation
									JOINT LeftHandIndex1
									{
										OFFSET 0.69320 -0.00000 0.00000
										CHANNELS 3 Zrotation Yrotation Xrotation
										End Site
										{
											OFFSET 0.55888 -0.00000 0.00000
										}
									}
								}
								JOINT LThumb
								{
									OFFSET 0 0 0
									CHANNELS 3 Zrotation Yrotation Xrotation
									End Site
									{
										OFFSET 0.56741 -0.00000 0.56741
									}
								}
							}
						}
					}
				}
				JOINT RightShoulder
				{
					OFFSET 0 0 0
					CHANNELS 3 Zrotation Yrotation Xrotation
					JOINT RightArm
					{
						OFFSET -3.28999 1.24191 -0.26899
						CHANNELS 3 Zrotation Yrotation Xrotation
						JOINT RightForeArm
						{
							OFFSET -4.64462 -0.00000 0.00000
							CHANNELS 3 Zrotation Yrotation Xrotation
							JOINT RightHand
							{
								OFFSET -3.40703 -0.00000 0.00000
								CHANNELS 3 Zrotation Yrotation Xrotation
								JOINT RightFingerBase
								{
									OFFSET 0 0 0
									CHANNELS 3 Zrotation Yrotation Xrotation
									JOINT RightHandIndex1
									{
										OFFSET -0.61958 -0.00000 0.00000
										CHANNELS 3 Zrotation Yrotation Xrotation
										End Site
										{
											OFFSET -0.49952 -0.00000 0.00000
										}
									}
								}
								JOINT RThumb
								{
									OFFSET 0 0 0
									CHANNELS 3 Zrotation Yrotation Xrotation
									End Site
									{
										OFFSET -0.50715 -0.00000 0.50715
									}
								}
							}
						}
					}
				}
			}
		}
	}
}
MOTION
Frames: 7
Frame Time: .0083333
42.5303 16.9450 -1.6904 492.5690 80.9793 480.1730 0.0000 0.0000 0.0000 -26.1569 5.0742 7.9020 1.5531 7.8656 22.3066 0.8800 -2.0407 -17.1551 0.1788 2.7233 7.5094 0.0000 0.0000 0.0000 7.8614 2.1306 -5.8208 -1.8029 -8.4430 24.0678 -0.6762 -1.1438 -15.9886 -0.0223 0.9641 -2.6501 -11.4792 -0.2627 12.4574 -1.8833 -1.7450 2.6561 4.7299 -0.6850 -3.8706 0.0828 0.9083 -25.5231 0.7736 1.1055 23.0373 0.4738 0.6419 11.7682 0.0000 -0.0000 0.0000 -70.7600 -16.1470 54.0055 74.1934 -59.0346 -46.3554 -0.0000 0.0000 -13.1170 27.5478 -26.6359 -13.1624 -7.1250 0.0000 -0.0000 -1.4655 0.4923 1.4534 0.0000 -0.0000 0.0000 76.3056 -33.3501 25.3470 -24.3266 35.5077 -7.8955 0.0000 -0.0000 -17.6412 -23.4208 -31.2167 12.6532 7.1250 -0.0000 -0.0000 10.1473 -63.1438 -4.4926
42.6172 16.9058 -1.6461 493.2650 81.3772 480.8290 0.0000 0.0000 0.0000 -25.3016 5.1724 7.9174 1.6330 8.0557 22.8834 0.9282 -2.3578 -17.5657 0.1673 2.6351 7.2644 0.0000 0.0000 0.0000 8.6980 2.3537 -5.1201 -1.6765 -8.1570 23.1920 -0.5212 -2.5302 -14.7927 -0.6137 -5.0137 13.9478 -11.2189 -0.1244 12.9202 -1.7786 -1.6112 2.4765 4.6899 -0.5922 -4.3467 0.1439 0.8647 -25.5061 0.6755 1.0487 23.0481 0.4171 0.6087 11.7705 -0.0000 -0.0000 0.0000 -70.6923 -16.1140 53.6942 74.5036 -59.0729 -46.6215 -0.0000 0.0000 -12.6561 27.4998 -26.8408 -13.2268 -7.1250 0.0000 -0.0000 -1.5259 0.2848 1.5188 -0.0000 -0.0000 0.0000 76.3926 -33.9986 24.7791 -23.9756 35.1385 -7.6925 0.0000 -0.0000 -17.2042 -22.2490 -33.6215 12.7630 7.1250 -0.0000 -0.0000 13.4073 -65.2028 -6.6026
42.7162 16.8693 -1.6161 494.4270 81.6765 481.9470 0.0000 0.0000 0.0000 -24.6433 5.2533 8.0642 1.7044 8.2212 23.3881 0.9792 -2.7135 -17.9874 0.1046 2.0854 5.7417 0.0000 0.0000 0.0000 9.2911 2.0564 -4.4887 -1.6126 -8.0076 22.7372 -0.3720 -3.6383 -13.4403 -0.8173 -5.7688 16.1152 -10.8384 -0.0630 12.9604 -1.7035 -1.4793 2.5166 4.5378 -0.5339 -4.3567 0.0723 0.8305 -25.5215 0.6986 1.0175 22.8457 0.4305 0.5897 11.6951 -0.0000 -0.0000 0.0000 -70.6345 -16.4259 53.3513 74.4349 -59.0645 -46.5626 -0.0000 0.0000 -12.1454 27.3989 -27.0551 -13.2658 -7.1250 0.0000 -0.0000 -1.6192 0.0798 1.6176 -0.0000 -0.0000 0.0000 76.5425 -34.2894 24.0948 -23.5738 34.7103 -7.4624 0.0000 -0.0000 -16.8758 -22.1977 -33.8930 12.8191 7.1250 -0.0000 -0.0000 13.7079 -65.4525 -6.8322
42.8218 16.8315 -1.6069 496.9200 81.9086 484.3670 0.0000 0.0000 0.0000 -24.1708 5.1616 8.4026 1.7704 8.3704 23.8449 1.0386 -3.0196 -18.4877 0.0557 1.5223 4.1873 0.0000 0.0000 0.0000 9.6834 1.1637 -4.1890 -1.6146 -8.0125 22.7520 -0.4709 -2.6659 -14.2113 -0.3729 -3.9222 10.8578 -10.0750 -0.1257 12.9487 -1.6942 -1.4559 2.5667 4.1176 -0.5364 -4.3232 -0.1422 0.8093 -25.3787 0.9276 1.0015 22.4770 0.5444 0.5926 11.5247 0.0000 0.0000 0.0000 -70.5020 -17.0396 53.2646 73.8197 -58.9873 -46.0351 -0.0000 0.0000 -12.0822 27.5213 -26.9462 -13.2849 -7.1250 0.0000 -0.0000 -1.5296 0.1674 1.5257 0.0000 0.0000 0.0000 76.7504 -34.5994 23.3319 -23.2819 34.3956 -7.2969 0.0000 -0.0000 -16.4650 -21.9935 -34.3826 12.8485 7.1250 -0.0000 -0.0000 14.4005 -65.8686 -7.3218
42.9250 16.8024 -1.5805 493.8460 81.1468 481.5990 0.0000 0.0000 0.0000 -25.2296 4.8785 8.2854 1.8525 8.5519 24.4034 1.1032 -3.0470 -19.0709 0.0160 0.8178 2.2477 0.0000 0.0000 0.0000 8.5757 0.6672 -4.7287 -1.7250 -8.2682 23.5317 -0.4956 -3.4441 -15.0054 -0.0150 -0.7907 2.1732 -10.8855 -0.0505 12.6460 -1.9539 -1.4360 2.4907 4.2845 -0.5168 -4.2231 -0.2101 0.7794 -25.1837 0.8246 1.0093 22.0867 0.5141 0.5743 11.3405 -0.0000 0.0000 0.0000 -70.4880 -16.8133 52.8540 74.2056 -59.0361 -46.3660 -0.0000 0.0000 -11.7577 27.5679 -26.9461 -13.3102 -7.1250 0.0000 -0.0000 -1.5020 0.1568 1.4984 -0.0000 0.0000 0.0000 76.9451 -34.7574 22.6278 -22.8284 33.9007 -7.0424 0.0000 -0.0000 -15.8744 -22.0481 -34.3894 12.8848 7.1250 -0.0000 -0.0000 14.3409 -65.8910 -7.2983
43.0139 16.7698 -1.5701 494.5900 81.1464 482.5130 0.0000 0.0000 0.0000 -25.2819 4.5599 8.3169 1.9294 8.7175 24.9157 1.1682 -3.0933 -19.6369 0.0007 0.1662 0.4566 0.0000 0.0000 0.0000 8.5788 0.1557 -5.4652 -1.9077 -8.6711 24.7718 -0.5150 -2.2886 -14.5815 -0.0304 -1.1248 3.0922 -10.3992 -0.0469 12.6397 -2.0634 -1.3765 2.4457 3.8887 -0.4892 -4.2940 -0.2229 0.6349 -25.2835 0.8041 0.8096 21.7361 0.4728 0.4774 11.2280 -0.0000 -0.0000 0.0000 -70.4650 -16.9307 52.6886 73.8960 -58.9970 -46.1005 -0.0000 0.0000 -11.3755 27.7132 -27.0339 -13.4286 -7.1250 0.0000 -0.0000 -1.4299 0.0292 1.4296 -0.0000 -0.0000 0.0000 77.3773 -34.7434 21.6420 -22.2398 33.2470 -6.7168 0.0000 -0.0000 -14.9183 -22.4090 -33.8538 12.9371 7.1250 -0.0000 -0.0000 13.4185 -65.4743 -6.6923
43.1020 16.7435 -1.5338 495.3250 81.7971 483.3540 0.0000 0.0000 0.0000 -24.3988 4.5201 8.2474 2.0194 8.9063 25.5026 1.2305 -3.3134 -20.1343 0.0002 0.0851 0.2339 0.0000 0.0000 0.0000 9.5288 0.7914 -5.8956 -2.0440 -8.9572 25.6614 -0.5238 -2.1398 -14.6164 -0.1022 -2.0614 5.6755 -9.7634 0.1212 12.4674 -1.9243 -1.0309 2.6246 3.6254 -0.3432 -4.0686 -0.3850 0.4651 -25.7738 0.8456 0.6133 21.4078 0.4814 0.3763 11.1947 -0.0000 -0.0000 0.0000 -70.5281 -17.3860 52.5390 73.3536 -58.9266 -45.6358 -0.0000 0.0000 -10.9428 27.7627 -27.2568 -13.5545 -7.1250 0.0000 -0.0000 -1.4362 -0.2200 1.4422 -0.0000 -0.0000 0.0000 77.9862 -34.3283 20.1806 -21.7030 32.6397 -6.4249 0.0000 -0.0000 -13.6312 -22.2762 -33.4188 12.7138 7.1250 -0.0000 -0.0000 13.2003 -65.0127 -6.4409
